<?xml version="1.0" encoding="utf-8"?>
<!-- Generator: Adobe Illustrator 21.0.1, SVG Export Plug-In . SVG Version: 6.00 Build 0)  -->
<svg version="1.1" id="Слой_1" xmlns="http://www.w3.org/2000/svg" xmlns:xlink="http://www.w3.org/1999/xlink" x="0px" y="0px"
	 width="27px" height="23px" viewBox="0 0 27 23" enable-background="new 0 0 27 23" xml:space="preserve">
<path d="M24.5,0H2.6C1.2,0,0,1.1,0,2.4v9c0,1.4,1.1,2.5,2.5,2.5c0.6,0,1.1-0.2,1.5-0.5v9c0,0.3,0.3,0.6,0.6,0.6h17.8
	c0.3,0,0.4-0.3,0.4-0.6v-9c0.5,0.3,1,0.5,1.5,0.5c1.4,0,2.5-1.1,2.5-2.5v-9C27,1.1,25.9,0,24.5,0z M21.9,11.4L21.9,11.4l0,10.6H5.1
	V11.4v-5C5.1,6.2,5.4,6,5.7,6h15.8c0.3,0,0.4,0.2,0.4,0.4V11.4z M26,11.4L26,11.4c0,0.8-0.7,1.5-1.5,1.5c-0.8,0-1.5-0.7-1.5-1.5v-5
	V6h1V5h-2.5H5.7H3.1v1h1v0.4v5c0,0.8-0.7,1.5-1.5,1.5c-0.8,0-1.5-0.7-1.5-1.5v-9C1,1.6,1.8,1,2.6,1h21.9C25.4,1,26,1.6,26,2.4V11.4z
	"/>
</svg>
