<?xml version="1.0" encoding="utf-8"?>
<!-- Generator: Adobe Illustrator 21.0.1, SVG Export Plug-In . SVG Version: 6.00 Build 0)  -->
<svg version="1.1" id="Слой_1" xmlns="http://www.w3.org/2000/svg" xmlns:xlink="http://www.w3.org/1999/xlink" x="0px" y="0px"
	 width="24.3px" height="17.1px" viewBox="0 0 24.3 17.1" enable-background="new 0 0 24.3 17.1" xml:space="preserve">
<g>
	<g>
		<path d="M23.8,0H0.6C0.3,0,0,0.3,0,0.6v13.7c0,1.6,1.3,2.9,2.9,2.9h18.5c1.6,0,2.9-1.3,2.9-2.9V0.6C24.3,0.3,24.1,0,23.8,0z
			 M23.2,14.3c0,1-0.8,1.7-1.8,1.7H2.9c-1,0-1.8-0.8-1.8-1.7V1.8l10.7,10.3c0.1,0.1,0.2,0.1,0.4,0.1s0.3,0,0.4-0.1l7.8-7.9
			c0.2-0.2,0.3-0.5,0.1-0.8c-0.2-0.2-0.6-0.3-0.8-0.1l-7.4,7.6L2.1,1.1h21.1V14.3z M21.4,3.1c0.1,0,0.3,0,0.4-0.1l0.2-0.1
			C22.2,2.6,22.2,2.3,22,2c-0.2-0.2-0.6-0.3-0.8-0.1L21,2.1c-0.2,0.2-0.3,0.5-0.1,0.8C21.1,3,21.2,3.1,21.4,3.1z"/>
	</g>
</g>
</svg>
