<?xml version="1.0" encoding="utf-8"?>
<!-- Generator: Adobe Illustrator 21.0.1, SVG Export Plug-In . SVG Version: 6.00 Build 0)  -->
<svg version="1.1" id="Слой_1" xmlns="http://www.w3.org/2000/svg" xmlns:xlink="http://www.w3.org/1999/xlink" x="0px" y="0px"
	 width="16px" height="28px" viewBox="0 0 16 28" enable-background="new 0 0 16 28" xml:space="preserve">
<path d="M13.9,0H2.2C1,0,0,0.9,0,2v23.8C0,27,1,28,2.2,28h11.7c1.2,0,2.1-1,2.1-2.1V2C16,0.9,15.1,0,13.9,0z M14.9,25.9L14.9,25.9
	c0,0.6-0.4,1.1-1,1.1H2.2c-0.6,0-1.1-0.5-1.1-1.1V5.2h13.9V25.9z M14.9,4.1L14.9,4.1H1.1V2c0-0.6,0.5-1,1.1-1h11.7c0.6,0,1,0.4,1,1
	V4.1z M9.1,2.1H6.9c-0.3,0-0.5,0.2-0.5,0.5c0,0.3,0.2,0.5,0.5,0.5h2.1c0.3,0,0.5-0.2,0.5-0.5C9.6,2.3,9.4,2.1,9.1,2.1z M8.1,25.9
	c1.2,0,2.1-0.9,2.1-2.1c0-1.1-1-2.1-2.1-2.1c-1.2,0-2.1,0.9-2.1,2.1C5.9,24.9,6.9,25.9,8.1,25.9z M8.1,22.8c0.6,0,1.1,0.5,1.1,1
	c0,0.6-0.5,1-1.1,1c-0.6,0-1.1-0.5-1.1-1C7,23.2,7.5,22.8,8.1,22.8z"/>
</svg>
