<?xml version="1.0" encoding="utf-8"?>
<!-- Generator: Adobe Illustrator 21.0.1, SVG Export Plug-In . SVG Version: 6.00 Build 0)  -->
<svg version="1.1" id="Слой_1" xmlns="http://www.w3.org/2000/svg" xmlns:xlink="http://www.w3.org/1999/xlink" x="0px" y="0px"
	 width="20.4px" height="28.8px" viewBox="0 0 20.4 28.8" enable-background="new 0 0 20.4 28.8" xml:space="preserve">
<g>
	<g>
		<path d="M10.3,6.3c-2,0-3.7,1.7-3.7,3.7c0,2,1.7,3.7,3.7,3.7c2,0,3.7-1.7,3.7-3.7C14,8,12.3,6.3,10.3,6.3z M10.3,12.6
			c-1.5,0-2.7-1.2-2.7-2.6c0-1.5,1.2-2.6,2.7-2.6c1.5,0,2.7,1.2,2.7,2.6C12.9,11.5,11.7,12.6,10.3,12.6z M17.4,3
			c-1.9-1.9-4.5-3-7.2-3C7.5,0,4.9,1.1,3,3c-3.6,3.5-4,10.2-1,14.2l8.2,11.7l8.1-11.7C21.4,13.1,20.9,6.5,17.4,3z M17.5,16.5
			L10.2,27L2.9,16.5C0.1,12.9,0.5,6.9,3.7,3.7c1.7-1.7,4-2.6,6.5-2.6c2.4,0,4.7,0.9,6.5,2.6C19.9,6.9,20.2,12.9,17.5,16.5z"/>
	</g>
</g>
</svg>
